<svg width="48" height="48" viewBox="0 0 48 48" fill="none" xmlns="http://www.w3.org/2000/svg">
<g clip-path="url(#clip0_279_38557)">
<rect width="48" height="48" fill="#F7F7F7"/>
<path d="M32.2417 26.5345C33.9745 26.4481 36.0145 26.7937 37.3441 25.8337C38.8081 24.7249 40.0609 21.7009 38.7937 20.2273C37.8385 19.2673 36.9121 18.9649 35.6929 18.8785C34.8625 18.8161 35.2129 16.1761 35.2129 16.1761H39.8017C39.9937 16.1761 40.1521 16.0177 40.1521 15.8257V15.4081C40.1521 15.2209 40.0033 15.0721 39.8161 15.0721H35.3905C35.6833 12.4177 33.4417 10.3969 30.8065 10.5841L30.2689 10.6369C30.2689 10.6369 29.7361 10.2673 29.3905 10.0657C28.8001 9.72488 27.9361 9.23048 27.1393 9.12008C24.2449 8.30408 20.8081 8.93288 19.1329 10.9201C18.9169 10.9105 18.6817 10.8193 18.6817 10.8193C17.0305 10.2721 15.4321 10.5697 14.4769 11.3713C13.2001 12.4417 12.9601 13.3633 12.7249 15.1249L8.16012 15.1297C8.06412 15.1297 7.97772 15.1921 7.94892 15.2881L7.85772 15.8593C7.82412 15.9697 7.90572 16.0801 8.02092 16.0801L12.5953 16.0753C12.5953 16.0753 11.4673 22.1089 13.1329 24.9361C14.2897 26.8993 20.2321 26.3809 20.2321 26.3809L32.2417 26.5345ZM29.3953 11.8705C30.8929 10.9249 32.8129 11.2945 33.9937 12.6721C34.4017 13.3633 34.8433 14.0881 34.5937 15.0721C32.3569 15.0721 30.1249 15.0721 27.8881 15.0721C27.7537 13.5121 28.2913 12.7393 29.3953 11.8705ZM20.1841 10.9201C22.5121 9.00968 27.0289 9.15848 29.2897 10.9681C28.3537 11.5105 27.6865 12.2929 27.2401 13.3201C25.1905 13.3201 23.1361 13.3201 21.0865 13.3201C20.5585 11.3761 19.1377 11.6401 20.1841 10.9201ZM27.0193 14.5297L26.9857 15.0769L21.2833 15.1201V14.5297H27.0193ZM13.6801 13.7761C14.6977 9.93128 21.0913 10.3969 20.4337 15.1249C18.1633 15.1249 15.7009 15.1249 13.4305 15.1249C13.3825 14.6449 13.5361 14.2081 13.6801 13.7761ZM34.4497 16.1761C34.4065 17.1553 34.1473 19.3729 35.2417 19.5265C36.1441 19.6561 37.2577 19.8289 38.0929 20.6785C39.1393 21.7441 37.7905 24.7585 36.7441 25.3825C35.3617 25.8001 33.6049 25.7857 32.0401 25.7329H27.8353L17.6257 25.6849C15.8881 25.7185 13.8625 25.1761 13.3249 23.5825C12.4993 21.1585 13.3249 16.1761 13.3249 16.1761H34.4497Z" fill="black"/>
<path d="M30.4896 17.8272C30.1872 17.3616 29.7552 17.5632 29.3904 17.5296C28.5312 17.8416 28.344 19.3152 29.04 19.9296C29.232 20.0112 29.5776 20.1983 29.8416 20.1311C30.0144 20.0831 30.2304 20.04 30.4416 19.9296C30.8976 19.5168 30.9312 18.2208 30.4896 17.8272Z" fill="black"/>
<path d="M21.9842 18.0771C20.909 16.7811 19.2962 18.2355 20.0306 19.5267C20.9762 20.9427 22.7042 19.3491 21.9842 18.0771Z" fill="black"/>
<path d="M27.7923 22.1712C27.3411 22.4784 26.7219 22.5456 26.0403 21.648C26.0259 21.624 26.0307 21.5952 26.0547 21.5808C26.1411 21.5376 26.3187 21.4272 26.3475 21.1824C26.4291 20.4144 26.2611 20.2224 25.8387 19.9296C25.8339 19.9296 25.8339 19.9248 25.8291 19.9248C24.9891 19.584 24.3507 20.3472 24.4419 21.1248C24.4611 21.2736 24.5283 21.4128 24.6387 21.5088C24.7203 21.5808 24.8355 21.648 24.9843 21.672C25.0083 21.6768 25.0227 21.7008 25.0179 21.7248C24.9747 21.936 24.9843 22.1616 24.8931 22.3392C24.7107 22.6752 24.2931 23.2032 23.5059 22.224C23.3667 22.0512 22.8003 22.0656 22.8627 22.2864C22.9539 22.6032 23.3043 23.112 23.8323 23.2848C24.1011 23.376 24.7155 23.4096 24.8499 23.376C25.2099 23.2848 25.6131 23.1168 25.7427 22.8624C25.7571 22.8336 25.7955 22.8288 25.8147 22.8528C26.0307 23.136 27.1779 23.2224 27.5811 23.088C27.8019 23.016 28.1331 22.7568 28.2003 22.4688C28.2627 22.2192 27.9939 22.0368 27.7923 22.1712Z" fill="black"/>
<path fill-rule="evenodd" clip-rule="evenodd" d="M22.8914 28.2241C22.1618 28.3345 21.5954 28.4497 20.8562 28.7137C20.8418 28.7185 20.8274 28.7281 20.813 28.7329C19.9826 29.1841 19.157 29.6161 18.2306 30.2833C17.5538 30.7729 17.1746 30.4417 16.6418 30.3409C16.6274 30.3361 16.6082 30.3313 16.5938 30.3265C16.4642 30.2785 15.773 30.0625 15.053 30.5425C14.3474 31.0081 14.2322 31.9057 13.9586 32.6257C13.5266 33.7681 11.477 33.0769 11.9762 33.9793C12.0626 34.2481 12.6098 34.4785 12.7682 34.5361C12.797 34.5457 12.821 34.5505 12.8498 34.5553C15.8402 34.8289 18.3554 34.9633 20.3474 36.8785C20.357 36.8881 21.821 38.1361 22.3058 38.5489C22.4066 38.6353 22.4642 38.7553 22.4642 38.8849C22.4642 39.3361 22.4642 40.5265 22.4066 42.5665C22.4018 42.7441 22.541 42.8881 22.7186 42.8881H22.8194C22.9874 42.8881 23.1266 42.7537 23.1314 42.5809C23.1746 40.9153 23.381 32.8945 23.597 30.8545C23.597 30.8497 23.597 30.8449 23.597 30.8401L23.6882 28.9345C23.7122 28.5073 23.3234 28.1569 22.8914 28.2241ZM21.6146 31.6945C21.7682 30.5569 21.8162 30.0913 22.013 29.3665C22.0466 29.2465 22.1474 29.1553 22.2674 29.1361L22.8962 29.0401C22.9874 29.0257 23.069 29.1025 23.0594 29.1937C22.9634 30.1489 22.5026 34.6417 22.4066 37.2529C22.4018 37.3729 22.2626 37.4305 22.1762 37.3489C21.8546 37.0657 21.5906 36.7153 21.269 36.4321C21.1922 36.3649 21.1538 36.2689 21.1634 36.1681L21.6146 31.6945Z" fill="black"/>
<path fill-rule="evenodd" clip-rule="evenodd" d="M34.9442 31.5745L34.3154 29.1649C34.2674 28.9777 34.0562 28.8817 33.8834 28.9681L31.3346 30.2401C31.205 30.3025 31.1042 30.4081 31.0418 30.5377C29.5298 33.6337 27.9074 38.4721 26.477 41.6353C26.4722 41.6449 26.4722 41.6497 26.4722 41.6593C26.4002 42.0193 25.9586 42.9121 26.4722 42.8977C26.7122 42.8929 29.1602 42.9169 30.4706 42.8161C31.0226 42.7393 31.2818 41.4577 31.4738 41.0737C31.4738 41.0689 31.4786 41.0689 31.4786 41.0641L34.9202 31.9585C34.9682 31.8385 34.9778 31.7041 34.9442 31.5745ZM32.4098 30.2929L32.5538 30.2257C32.6498 30.1825 32.765 30.1777 32.8658 30.2113L33.9362 30.6097C34.0706 30.6577 34.1666 30.7729 34.1954 30.9121L34.2242 31.0513C34.253 31.1809 34.1282 31.2865 34.0034 31.2385L32.4194 30.6433C32.2658 30.5857 32.2562 30.3649 32.4098 30.2929ZM31.8434 31.2145L31.9826 31.2481C32.117 31.3009 32.1842 31.4545 32.1266 31.5889C31.4978 33.0769 28.1762 40.8769 27.8882 42.0001C27.8786 42.0481 27.8354 42.0769 27.7874 42.0769C27.6386 42.0817 27.5042 42.0961 27.3746 42.1057C27.293 42.1153 27.2354 42.0337 27.2642 41.9569L31.4882 31.3633C31.541 31.2289 31.6994 31.1569 31.8434 31.2145ZM29.069 42.0385L28.6034 42.0673C28.5218 42.0721 28.4642 41.9905 28.4978 41.9185L31.8626 33.8017L32.6834 31.7857C32.7362 31.6609 32.8754 31.5985 33.0002 31.6465L33.0482 31.6657C33.173 31.7089 33.2354 31.8481 33.1826 31.9681L29.189 41.9521C29.1698 42.0001 29.1218 42.0337 29.069 42.0385ZM30.1538 42.0337C30.0242 42.0337 29.8946 42.0337 29.765 42.0337C29.6882 42.0337 29.6354 41.9569 29.6642 41.8849L33.7394 32.2225C33.7922 32.0929 33.9362 32.0305 34.0706 32.0737C34.1954 32.1169 34.2578 32.2561 34.205 32.3761L30.2546 41.9665C30.2354 42.0049 30.197 42.0337 30.1538 42.0337Z" fill="black"/>
<path fill-rule="evenodd" clip-rule="evenodd" d="M29.6447 5.05923C26.7359 4.29123 24.1535 5.99523 24.1535 5.99523C21.7679 5.60163 17.2943 5.89923 17.9999 7.52163C18.7055 9.14403 23.5535 7.74723 23.5535 7.74723L23.5487 8.97123L24.4559 8.85123V7.59843C27.7439 7.74723 28.9199 6.97923 28.9199 6.97923C31.1663 5.58723 29.6447 5.05923 29.6447 5.05923ZM19.1951 7.34883C19.1951 7.34883 18.6575 6.93603 20.7407 6.63363C22.8239 6.33123 23.2367 6.56643 23.2415 6.92163C23.2511 7.23363 20.9567 7.68483 19.1951 7.34883ZM29.4719 5.81283C29.2271 6.02403 29.1599 6.35043 27.4415 6.68163C25.4687 7.05603 25.0367 7.07043 24.7919 6.87363C24.7199 6.81603 24.7055 6.72003 24.7535 6.64323C24.8351 6.51363 25.0127 6.32163 25.4159 6.12963C26.3135 5.70723 27.8207 5.43363 29.1695 5.59203C29.2943 5.60163 29.5679 5.73123 29.4719 5.81283Z" fill="black"/>
</g>
<defs>
<clipPath id="clip0_279_38557">
<rect width="48" height="48" fill="white"/>
</clipPath>
</defs>
</svg>
